<?xml version="1.0" encoding="utf-8"?>
<!-- Generator: Adobe Illustrator 21.0.0, SVG Export Plug-In . SVG Version: 6.00 Build 0)  -->
<svg version="1.1" id="图层_1" xmlns="http://www.w3.org/2000/svg" xmlns:xlink="http://www.w3.org/1999/xlink" x="0px" y="0px"
	 viewBox="0 0 2551.2 3401.6" style="enable-background:new 0 0 2551.2 3401.6;" xml:space="preserve">
<style type="text/css">
	.st0{enable-background:new    ;}
	.st1{fill:#2C67EA;}
	.st2{fill:#FFFFFF;}
</style>
<g>
	<path d="M1478.8,1685.3c0,0,12.7-2.2,18.7-3v93h-18.7V1685.3z"/>
	<g>
		<path d="M1200.7,1686.1c0,0,12.7-2.2,18.7-3v93h-18.7V1686.1z"/>
		<path d="M1246.9,1687.6l-28.2,34.5v14.2c0,0,16.1,10.5,29.2,39.1h21.7c0,0-15.7-35.5-34.5-49.1l34.5-37.6L1246.9,1687.6z"/>
	</g>
	<path d="M1394.8,1712.3c0,0-30.7-14-43.5,8.2c0,0-9,21,20.2,30c0,0,16.9,5.2,4.9,10.9c0,0-7.9,4.8-25.1-4.1l-3,15
		c0,0,16.5,6.3,33,2.2c0,0,22.5-5.7,15-25.5c0,0-4.5-9.5-19.5-14.2c0,0-11.6-4.3-7.5-10.5c1.5-2.2,5.2-3,11.2-1.5
		c4.5,1.5,11.2,3.7,11.2,3.7L1394.8,1712.3z"/>
	<path d="M1625,1712.3c0,0-30.7-14-43.5,8.2c0,0-9,21,20.2,30c0,0,16.9,5.2,4.9,10.9c0,0-7.9,4.8-25.1-4.1l-3,15
		c0,0,16.5,6.3,33,2.2c0,0,22.5-5.7,15-25.5c0,0-4.5-9.5-19.5-14.2c0,0-11.6-4.3-7.5-10.5c1.5-2.2,5.2-3,11.2-1.5
		c4.5,1.5,11.2,3.7,11.2,3.7L1625,1712.3z"/>
	<path d="M1512.5,1711.8v39c0,0-0.7,24,22.5,25.5c0,0,7.5,1.5,32.2-3v-61.5h-18v48.7c0,0-19.4,4.2-19.5-9.7v-39H1512.5z"/>
	<path d="M1462.2,1691.7c0,0-9-13.7-35.2-10.7c0,0-9.4,0.7-16.5,2.2l-1.3,92.5h18.7l0.1-31.7c0,0,21.7,9.9,33.7-5.8
		C1461.9,1738.1,1477.2,1715.4,1462.2,1691.7z M1451.1,1715.2c0,0-0.1,15.7-12.1,17.2c0,0-5.2,0.7-11.2-3.1l0.2-33
		c0,0,6-0.7,12.7,0.1C1440.7,1696.4,1451.4,1697.7,1451.1,1715.2z"/>
	<g class="st0">
		<path d="M1341,1751c-0.3,16.4-11.5,24.7-33.7,25c-21.4-0.5-32.4-8.6-32.9-24.2c0.5-11.1,6.9-18.4,19.1-21.8
			c-11.1-2.9-16.7-9.5-16.7-19.8c1.6-14.5,12-22.2,31.4-23c19.3,0.8,29.8,8.5,31.4,23c0,9.8-6.2,16.4-18.7,19.8
			C1334.3,1732.9,1341,1739.9,1341,1751z M1321.6,1752.2c0-7.7-4.8-12.6-14.3-14.7c-9,2.4-13.5,7.1-13.5,14.3
			c0.5,7.9,5.2,12.2,13.9,12.7C1316.7,1764.2,1321.3,1760.1,1321.6,1752.2z M1320.4,1710.5c-0.3-7.1-4.4-10.8-12.3-11.1
			c-7.7,0.5-11.8,4.1-12.3,10.7c-0.3,6.4,3.8,10.6,12.3,12.7C1316,1720.7,1320.1,1716.6,1320.4,1710.5z"/>
	</g>
</g>
<g>
	<path class="st1" d="M1002.5,1716.7c0,0-27.4-35.2-59.7-8.2c0,0-24.7,24.7-7.6,49.4c0,0,7.6,20.6,40.5,26.8h135.9
		c0,0,35.1-3.8,41.2-45.3c0,0,4.1-39.1-37.1-48.7c0,0-4.1-2.7-33-0.7c0,0-2-38.1-50.1-41.2c0,0-41.6-1.1-56.3,45.3
		C976.5,1694.1,998,1698.9,1002.5,1716.7z"/>
	<path class="st2" d="M1077.5,1669.3c0,0-8.5,24.9-19.5,42.4h-33.1l-16,24.1h32.6c0,0-17.9,25.7-54,49.7l8.3,1
		c0,0,45.5-6.6,78.2-50.3h34.1l16.8-24.5h-34.3l16.5-33L1077.5,1669.3z"/>
	<g>
		<path class="st1" d="M1072.4,1653.6l34.1-38.6l17.4,38.6h-14c0,0-21.9,95.7-97.5,125.4c-14.1,5.5-18.5,5.2-18.5,5.2
			s67-37.2,94-130.6H1072.4z"/>
		<polygon class="st1" points="1105.3,1732.5 1016.9,1732.5 1028.7,1715.6 1117.1,1715.6 		"/>
	</g>
</g>
</svg>
